<?xml version="1.0" encoding="utf-8"?>
<!-- Generator: Fusion 360, Shaper Origin Export Add-In, Version 1.5.0  -->
<svg enable-background="new 0 0 14 5.5" height="5.5cm" shaper:fusionaddin="version:1.5.0" version="1.1" viewBox="0 0 14 5.5" width="14cm" x="0cm" xml:space="preserve" xmlns="http://www.w3.org/2000/svg" xmlns:shaper="http://www.shapertools.com/namespaces/shaper" xmlns:xlink="http://www.w3.org/1999/xlink" y="0cm"><path d="M13,5.5 L0,5.5 A0.5,0.5 90 0,1 -0.5,5 L-0.5,0.5 A0.5,0.5 180 0,1 -0,-0 L13,0 A0.5,0.5 270 0,1 13.5,0.5 L13.5,5 A0.5,0.5 0 0,1 13,5.5z" fill="rgb(0,0,0)" shaper:cutDepth="0.003" shaper:pathType="exterior" transform="matrix(1,0,0,-1,0.5,5.5)" vector-effect="non-scaling-stroke" /><path d="M9.7,2.75 a0.15,0.15 0 1,1 0.3,0 a0.15,0.15 0 1,1 -0.3,0z" fill="rgb(255,255,255)" shaper:cutDepth="0.003" shaper:pathType="interior" stroke="rgb(0,0,0)" transform="matrix(1,0,0,-1,0.5,5.5)" vector-effect="non-scaling-stroke" /><path d="M7.35,2.75 a0.15,0.15 0 1,1 0.3,0 a0.15,0.15 0 1,1 -0.3,0z" fill="rgb(255,255,255)" shaper:cutDepth="0.003" shaper:pathType="interior" stroke="rgb(0,0,0)" transform="matrix(1,0,0,-1,0.5,5.5)" vector-effect="non-scaling-stroke" /><path d="M1.9499998,2.826803 a0.15,0.15 0 1,1 0.3,0 a0.15,0.15 0 1,1 -0.3,0z" fill="rgb(255,255,255)" shaper:cutDepth="0.003" shaper:pathType="interior" stroke="rgb(0,0,0)" transform="matrix(1,0,0,-1,0.5,5.5)" vector-effect="non-scaling-stroke" /><path d="M6.9799355,3.55 L6.4799355,3.55 6.4799355,1.95 6.9799355,1.95 6.9799355,3.55z" fill="rgb(255,255,255)" shaper:cutDepth="0.003" shaper:pathType="interior" stroke="rgb(0,0,0)" transform="matrix(1,0,0,-1,0.5,5.5)" vector-effect="non-scaling-stroke" /><path d="M1.9499998,4.626803 a0.15,0.15 0 1,1 0.3,0 a0.15,0.15 0 1,1 -0.3,0z" fill="rgb(255,255,255)" shaper:cutDepth="0.003" shaper:pathType="interior" stroke="rgb(0,0,0)" transform="matrix(1,0,0,-1,0.5,5.5)" vector-effect="non-scaling-stroke" /><path d="M5.7499999,2.826803 a0.15,0.15 0 1,1 0.3,0 a0.15,0.15 0 1,1 -0.3,0z" fill="rgb(255,255,255)" shaper:cutDepth="0.003" shaper:pathType="interior" stroke="rgb(0,0,0)" transform="matrix(1,0,0,-1,0.5,5.5)" vector-effect="non-scaling-stroke" /><path d="M5.7499999,4.626803 a0.15,0.15 0 1,1 0.3,0 a0.15,0.15 0 1,1 -0.3,0z" fill="rgb(255,255,255)" shaper:cutDepth="0.003" shaper:pathType="interior" stroke="rgb(0,0,0)" transform="matrix(1,0,0,-1,0.5,5.5)" vector-effect="non-scaling-stroke" /><path d="M0.75,5.15 a0.15,0.15 0 1,1 0.3,0 a0.15,0.15 0 1,1 -0.3,0z" fill="rgb(255,255,255)" shaper:cutDepth="0.003" shaper:pathType="interior" stroke="rgb(0,0,0)" transform="matrix(1,0,0,-1,0.5,5.5)" vector-effect="non-scaling-stroke" /><path d="M5.9499999,5.15 a0.15,0.15 0 1,1 0.3,0 a0.15,0.15 0 1,1 -0.3,0z" fill="rgb(255,255,255)" shaper:cutDepth="0.003" shaper:pathType="interior" stroke="rgb(0,0,0)" transform="matrix(1,0,0,-1,0.5,5.5)" vector-effect="non-scaling-stroke" /><path d="M2.7,5.15 a0.15,0.15 0 1,1 0.3,0 a0.15,0.15 0 1,1 -0.3,0z" fill="rgb(255,255,255)" shaper:cutDepth="0.003" shaper:pathType="interior" stroke="rgb(0,0,0)" transform="matrix(1,0,0,-1,0.5,5.5)" vector-effect="non-scaling-stroke" /><path d="M4,5.15 a0.15,0.15 0 1,1 0.3,0 a0.15,0.15 0 1,1 -0.3,0z" fill="rgb(255,255,255)" shaper:cutDepth="0.003" shaper:pathType="interior" stroke="rgb(0,0,0)" transform="matrix(1,0,0,-1,0.5,5.5)" vector-effect="non-scaling-stroke" /><path d="M2.4005248,4.976803 L2.4005248,4.476803 5.5999999,4.476803 5.5999999,4.976803 2.4005248,4.976803z" fill="rgb(255,255,255)" shaper:cutDepth="0.003" shaper:pathType="interior" stroke="rgb(0,0,0)" transform="matrix(1,0,0,-1,0.5,5.5)" vector-effect="non-scaling-stroke" /><path d="M5.5999999,2.476803 L5.5999999,2.976803 2.4005248,2.976803 2.4005248,2.476803 5.5999999,2.476803z" fill="rgb(255,255,255)" shaper:cutDepth="0.003" shaper:pathType="interior" stroke="rgb(0,0,0)" transform="matrix(1,0,0,-1,0.5,5.5)" vector-effect="non-scaling-stroke" /><path d="M0.0999998,0.55 L5.2999998,0.55 5.2999998,0.25 0.0999998,0.25 0.0999998,0.55z" fill="rgb(255,255,255)" shaper:cutDepth="0.003" shaper:pathType="interior" stroke="rgb(0,0,0)" transform="matrix(1,0,0,-1,0.5,5.5)" vector-effect="non-scaling-stroke" /><path d="M0.0999998,2.3 L5.2999998,2.3 5.2999998,2 0.0999998,2 0.0999998,2.3z" fill="rgb(255,255,255)" shaper:cutDepth="0.003" shaper:pathType="interior" stroke="rgb(0,0,0)" transform="matrix(1,0,0,-1,0.5,5.5)" vector-effect="non-scaling-stroke" /></svg>